<svg width="49" height="46" viewBox="0 0 49 46" fill="none" xmlns="http://www.w3.org/2000/svg">
<path d="M23.5419 1.56653C23.9798 0.776768 25.1154 0.776769 25.5533 1.56652L31.8984 13.0092C32.3116 13.7544 33.0366 14.2756 33.8746 14.43L46.8469 16.8192C47.7479 16.9852 48.1026 18.0867 47.4677 18.7472L38.4393 28.1393C37.8387 28.764 37.5551 29.628 37.6684 30.4871L39.3638 43.3373C39.4825 44.2376 38.56 44.9139 37.7372 44.5297L25.7533 38.9348C24.9891 38.578 24.1061 38.578 23.3419 38.9348L11.3581 44.5297C10.5352 44.9139 9.61266 44.2376 9.73144 43.3373L11.4268 30.4872C11.5401 29.628 11.2565 28.764 10.6559 28.1393L1.62751 18.7472C0.992605 18.0867 1.34727 16.9852 2.24828 16.8192L15.2206 14.43C16.0586 14.2756 16.7836 13.7544 17.1968 13.0092L23.5419 1.56653Z" stroke="#9D9D9D" stroke-opacity="0.7" stroke-width="1.7"/>
</svg>
